<svg xmlns="http://www.w3.org/2000/svg" width="1280" height="640" viewBox="0 0 1280 640" role="img" aria-labelledby="title desc">
<title id="title">Kartik Hulmukh — current work</title>
<desc id="desc">A restrained mission-control view of four current software projects and their honest lifecycle status.</desc>
<style>
  .bg{fill:#0d1117} .accent{fill:#5e9fe8} .title{font:700 48px Arial,sans-serif;fill:#f0f6fc;letter-spacing:-1px}
  .subtitle{font:20px Arial,sans-serif;fill:#9da7b3} .label{font:700 13px Arial,sans-serif;fill:#5e9fe8;letter-spacing:2px}
  .project{font:600 22px Arial,sans-serif;fill:#f0f6fc} .status{font:700 15px Consolas,monospace;fill:#8bd3a8;letter-spacing:1px}
  .date{font:14px Consolas,monospace;fill:#7d8590} .rule{stroke:#30363d;stroke-width:1}
  .motto{font:700 19px Consolas,monospace;fill:#c9d1d9;letter-spacing:1px}
</style>
<rect class="bg" width="1280" height="640" rx="20"/>
<rect class="accent" x="0" y="0" width="12" height="640" rx="6"/>
<text x="78" y="84" class="label">CURRENT WORK / PUBLIC STATUS</text>
<text x="78" y="145" class="title">Kartik Hulmukh</text>
<text x="78" y="182" class="subtitle">Useful software for communities and systems that need to be inspectable.</text>
<text x="78" y="216" class="label">PROJECT</text><text x="790" y="216" class="label">STATE</text><text x="1060" y="216" class="label">UPDATED</text>
<text x="78" y="250" class="project">Kairo-Phantom</text><text x="790" y="250" class="status">PRE-LAUNCH</text><text x="1060" y="250" class="date">2026-07-14</text><line x1="78" y1="274" x2="1202" y2="274" class="rule"/><text x="78" y="318" class="project">RGIT Rozgar</text><text x="790" y="318" class="status">DEPLOYED</text><text x="1060" y="318" class="date">2026-07-13</text><line x1="78" y1="342" x2="1202" y2="342" class="rule"/><text x="78" y="386" class="project">Project X-Ray India</text><text x="790" y="386" class="status">PUBLIC BETA</text><text x="1060" y="386" class="date">2026-07-14</text><line x1="78" y1="410" x2="1202" y2="410" class="rule"/><text x="78" y="454" class="project">Proving Grounds</text><text x="790" y="454" class="status">EXPERIMENTAL</text><text x="1060" y="454" class="date">2026-07-13</text><line x1="78" y1="478" x2="1202" y2="478" class="rule"/>
<text x="78" y="575" class="motto">BUILD  →  TEST  →  EXPLAIN  →  IMPROVE</text>
</svg>