<svg xmlns="http://www.w3.org/2000/svg" width="1200" height="650" viewBox="0 0 1200 650" role="img" aria-labelledby="t d"><title id="t">The Proof Loom</title><desc id="d">Four project strands pass through a mechanical evidence loom from source to boundary.</desc><style>.title{font:700 58px Georgia,serif;letter-spacing:-1.5px}.sub{font:18px Arial,sans-serif}.small{font:11px Arial,sans-serif;letter-spacing:1.4px}.label{font:700 18px Georgia,serif}</style><rect width="1200" height="650" fill="#0b0d0f"/><path d="M54 108H1146" stroke="#2c3439"/><text x="54" y="70" class="small" fill="#8b673f">KARTIK HULMUKH / PUBLIC EVIDENCE INSTRUMENT / JULY 2026</text><text x="54" y="155" class="title" fill="#f0eadf">THE PROOF LOOM</text><text x="735" y="132" class="sub" fill="#8c989f">Pull the claim. Inspect the strand.</text><text x="735" y="160" class="sub" fill="#8b673f">Break the evidence.</text><rect x="75" y="182" width="1050" height="352" fill="none" stroke="#8b673f" stroke-width="4"/><path d="M75 182v352M1125 182v352" stroke="#8b673f" stroke-width="14"/><path d="M100 205 C320 187 490 229 730 197 S980 223 1100 205" fill="none" stroke="#D89A55" stroke-width="5"/><circle cx="100" cy="205" r="7" fill="#D89A55"/><text x="126" y="191" class="small" fill="#8c989f">01 / DEPLOYED</text><text x="126" y="223" class="label" fill="#f0eadf">RGIT Rozgar</text><path d="M100 285 C320 267 490 309 730 277 S980 303 1100 285" fill="none" stroke="#75A8C8" stroke-width="5"/><circle cx="100" cy="285" r="7" fill="#75A8C8"/><text x="126" y="271" class="small" fill="#8c989f">02 / PRE-LAUNCH</text><text x="126" y="303" class="label" fill="#f0eadf">Kairo-Phantom</text><path d="M100 365 C320 347 490 389 730 357 S980 383 1100 365" fill="none" stroke="#B86D5D" stroke-width="5"/><circle cx="100" cy="365" r="7" fill="#B86D5D"/><text x="126" y="351" class="small" fill="#8c989f">03 / PUBLIC BETA</text><text x="126" y="383" class="label" fill="#f0eadf">Project X-Ray India</text><path d="M100 445 C320 427 490 469 730 437 S980 463 1100 445" fill="none" stroke="#8E79B8" stroke-width="5"/><circle cx="100" cy="445" r="7" fill="#8E79B8"/><text x="126" y="431" class="small" fill="#8c989f">04 / EXPERIMENTAL</text><text x="126" y="463" class="label" fill="#f0eadf">Proving Grounds</text><path d="M460 190v330" stroke="#8b673f" stroke-width="22"/><path d="M448 190h24l-5 330h-14z" fill="#8b673f"/><text x="54" y="590" class="small" fill="#8c989f">SOURCE</text><text x="350" y="590" class="small" fill="#8c989f">CLAIM</text><text x="650" y="590" class="small" fill="#8c989f">TEST</text><text x="980" y="590" class="small" fill="#8c989f">BOUNDARY</text><text x="54" y="625" class="small" fill="#8c989f">OPERATE THE INTERACTIVE MODEL → kartik24hulmukh.github.io/Kartik24Hulmukh/</text></svg>